<svg width="496" height="180" viewBox="0 0 496 180" fill="none" xmlns="http://www.w3.org/2000/svg">
<g clip-path="url(#clip0_103_2)">
<path d="M98.8465 105.094L62.9232 57.5938L27 78.0938V154.094H495V67.5938L419.661 41.5938L346.318 90.0938L292.932 20.5938L203.124 48.5938L131.277 11.0938L98.8465 105.094Z" fill="url(#paint0_linear_103_2)" stroke="#3E74FF" stroke-width="2"/>
<line x1="27.125" y1="32.9375" x2="496.125" y2="32.9375" stroke="#57CF7D" stroke-width="2"/>
<path d="M122.977 0.03125V154.094H449.977V0.03125H122.977Z" fill="url(#paint1_linear_103_2)"/>
<path d="M26 172L242 172" stroke="black" stroke-width="2"/>
<path d="M495.707 172.707C496.098 172.317 496.098 171.683 495.707 171.293L489.343 164.929C488.953 164.538 488.319 164.538 487.929 164.929C487.538 165.319 487.538 165.953 487.929 166.343L493.586 172L487.929 177.657C487.538 178.047 487.538 178.681 487.929 179.071C488.319 179.462 488.953 179.462 489.343 179.071L495.707 172.707ZM280 173L495 173L495 171L280 171L280 173Z" fill="black"/>
<path d="M246.725 167.794V166.273H253.893V167.794H251.221V175H249.397V167.794H246.725ZM255.039 175V168.455H256.854V175H255.039ZM255.951 167.611C255.681 167.611 255.449 167.521 255.256 167.342C255.066 167.161 254.971 166.943 254.971 166.69C254.971 166.44 255.066 166.226 255.256 166.047C255.449 165.865 255.681 165.774 255.951 165.774C256.221 165.774 256.451 165.865 256.641 166.047C256.834 166.226 256.931 166.44 256.931 166.69C256.931 166.943 256.834 167.161 256.641 167.342C256.451 167.521 256.221 167.611 255.951 167.611ZM258.308 175V168.455H260.039V169.609H260.115C260.252 169.226 260.479 168.923 260.797 168.702C261.115 168.48 261.496 168.369 261.939 168.369C262.388 168.369 262.77 168.482 263.085 168.706C263.401 168.928 263.611 169.229 263.716 169.609H263.784C263.918 169.234 264.159 168.935 264.509 168.71C264.861 168.483 265.277 168.369 265.757 168.369C266.368 168.369 266.864 168.564 267.244 168.953C267.628 169.339 267.82 169.888 267.82 170.598V175H266.009V170.956C266.009 170.592 265.912 170.32 265.719 170.138C265.526 169.956 265.284 169.865 264.994 169.865C264.665 169.865 264.408 169.97 264.223 170.18C264.039 170.388 263.946 170.662 263.946 171.003V175H262.186V170.918C262.186 170.597 262.094 170.341 261.909 170.151C261.727 169.96 261.487 169.865 261.189 169.865C260.987 169.865 260.806 169.916 260.644 170.018C260.485 170.118 260.358 170.259 260.264 170.44C260.171 170.619 260.124 170.83 260.124 171.071V175H258.308ZM272.237 175.128C271.563 175.128 270.984 174.991 270.498 174.719C270.015 174.443 269.643 174.054 269.382 173.551C269.12 173.045 268.99 172.447 268.99 171.757C268.99 171.084 269.12 170.493 269.382 169.984C269.643 169.476 270.011 169.08 270.485 168.795C270.963 168.511 271.522 168.369 272.164 168.369C272.596 168.369 272.998 168.439 273.37 168.578C273.745 168.714 274.072 168.92 274.35 169.196C274.632 169.472 274.85 169.818 275.007 170.236C275.163 170.651 275.241 171.136 275.241 171.693V172.192H269.714V171.067H273.532C273.532 170.805 273.475 170.574 273.362 170.372C273.248 170.17 273.09 170.013 272.889 169.899C272.69 169.783 272.458 169.724 272.194 169.724C271.919 169.724 271.674 169.788 271.461 169.916C271.251 170.041 271.086 170.21 270.967 170.423C270.847 170.634 270.786 170.868 270.784 171.126V172.196C270.784 172.52 270.843 172.8 270.963 173.036C271.085 173.271 271.257 173.453 271.478 173.581C271.7 173.709 271.963 173.773 272.267 173.773C272.468 173.773 272.653 173.744 272.82 173.688C272.988 173.631 273.132 173.545 273.251 173.432C273.37 173.318 273.461 173.179 273.524 173.014L275.203 173.125C275.117 173.528 274.943 173.881 274.678 174.182C274.417 174.48 274.079 174.713 273.664 174.881C273.252 175.045 272.776 175.128 272.237 175.128Z" fill="black"/>
<path d="M9.1875 155.094L9.00001 109.625" stroke="black" stroke-width="2"/>
<path d="M9.70711 0.292892C9.31659 -0.0976295 8.68342 -0.0976296 8.2929 0.292892L1.92894 6.65685C1.53841 7.04738 1.53841 7.68054 1.92894 8.07107C2.31946 8.46159 2.95262 8.46159 3.34315 8.07107L9 2.41422L14.6569 8.07107C15.0474 8.46159 15.6805 8.46159 16.0711 8.07107C16.4616 7.68054 16.4616 7.04738 16.0711 6.65685L9.70711 0.292892ZM10 46L10 1L8 1L8 46L10 46Z" fill="black"/>
<path d="M13 104.857L4.27273 104.857L4.27273 101.414C4.27273 100.754 4.39062 100.192 4.62642 99.726C4.85937 99.2573 5.19034 98.9007 5.61932 98.6564C6.04545 98.4093 6.54687 98.2857 7.12358 98.2857C7.70312 98.2857 8.2017 98.4107 8.61932 98.6607C9.03409 98.9107 9.35227 99.2729 9.57386 99.7473C9.79545 100.219 9.90625 100.79 9.90625 101.46L9.90625 103.766L8.4233 103.766L8.42329 101.759C8.42329 101.406 8.375 101.114 8.27841 100.881C8.18182 100.648 8.03693 100.475 7.84375 100.361C7.65057 100.244 7.41051 100.186 7.12358 100.186C6.83381 100.186 6.58949 100.244 6.39062 100.361C6.19176 100.475 6.04119 100.649 5.93892 100.885C5.83381 101.118 5.78125 101.412 5.78125 101.767L5.78125 103.012L13 103.012L13 104.857ZM9.02841 100.144L13 97.9746L13 100.012L9.02841 102.134L9.02841 100.144ZM13.1278 94.1383C13.1278 94.8116 12.9915 95.3912 12.7187 95.877C12.4432 96.3599 12.054 96.7321 11.5511 96.9934C11.0455 97.2548 10.4474 97.3855 9.7571 97.3855C9.08381 97.3855 8.4929 97.2548 7.98437 96.9934C7.47585 96.7321 7.07954 96.3642 6.79545 95.8897C6.51136 95.4125 6.36932 94.8528 6.36932 94.2108C6.36932 93.7789 6.43892 93.377 6.57812 93.0048C6.71449 92.6298 6.92045 92.3031 7.19602 92.0247C7.47159 91.7434 7.81818 91.5247 8.23579 91.3684C8.65057 91.2122 9.13636 91.1341 9.69318 91.1341L10.1918 91.1341L10.1918 96.661L9.06676 96.661L9.06676 92.8429C8.8054 92.8429 8.57386 92.8997 8.37216 93.0133C8.17045 93.127 8.01278 93.2846 7.89915 93.4863C7.78267 93.6852 7.72443 93.9167 7.72443 94.1809C7.72443 94.4565 7.78835 94.7008 7.91619 94.9139C8.04119 95.1241 8.21023 95.2889 8.42329 95.4082C8.63352 95.5275 8.8679 95.5886 9.12642 95.5914L10.196 95.5914C10.5199 95.5914 10.7997 95.5318 11.0355 95.4125C11.2713 95.2903 11.4531 95.1184 11.581 94.8968C11.7088 94.6752 11.7727 94.4125 11.7727 94.1085C11.7727 93.9068 11.7443 93.7221 11.6875 93.5545C11.6307 93.3869 11.5455 93.2434 11.4318 93.1241C11.3182 93.0048 11.179 92.9139 11.0142 92.8514L11.125 91.1724C11.5284 91.2576 11.8807 91.4324 12.1818 91.6966C12.4801 91.9579 12.7131 92.296 12.8807 92.7108C13.0455 93.1227 13.1278 93.5985 13.1278 94.1383ZM15.4545 85.6241L11.9517 85.6241L11.9517 85.6795C12.1335 85.7647 12.3139 85.8855 12.4929 86.0417C12.669 86.1951 12.8153 86.3954 12.9318 86.6426C13.0483 86.8869 13.1065 87.1852 13.1065 87.5375C13.1065 88.0346 12.9787 88.4849 12.723 88.8883C12.4645 89.2889 12.0852 89.6071 11.5852 89.8429C11.0824 90.0758 10.4659 90.1923 9.73579 90.1923C8.98579 90.1923 8.36221 90.0716 7.86506 89.8301C7.36506 89.5886 6.99148 89.2676 6.74432 88.867C6.49432 88.4636 6.36932 88.0218 6.36932 87.5417C6.36932 87.1752 6.43182 86.8699 6.55682 86.6255C6.67898 86.3784 6.83238 86.1795 7.01704 86.0289C7.19886 85.8755 7.37784 85.7591 7.55398 85.6795L7.55398 85.6028L6.45454 85.6028L6.45454 83.813L15.4545 83.813L15.4545 85.6241ZM11.6619 86.9622C11.6619 86.6696 11.5824 86.4224 11.4233 86.2207C11.2614 86.0162 11.0355 85.8599 10.7457 85.752C10.456 85.6412 10.1165 85.5858 9.72727 85.5858C9.33807 85.5858 9 85.6397 8.71307 85.7477C8.42613 85.8556 8.20454 86.0119 8.04829 86.2164C7.89204 86.421 7.81392 86.6696 7.81392 86.9622C7.81392 87.2605 7.89488 87.5119 8.05682 87.7164C8.21875 87.921 8.44318 88.0758 8.73011 88.1809C9.01704 88.286 9.34943 88.3386 9.72727 88.3386C10.108 88.3386 10.4446 88.286 10.7372 88.1809C11.027 88.073 11.2543 87.9181 11.419 87.7164C11.581 87.5119 11.6619 87.2605 11.6619 86.9622ZM10.2131 78.1582L6.45454 78.1582L6.45454 76.3429L13 76.3429L13 78.0858L11.8111 78.0858L11.8111 78.1539C12.1946 78.3017 12.5028 78.5474 12.7358 78.8912C12.9687 79.2321 13.0852 79.6483 13.0852 80.1397C13.0852 80.5772 12.9858 80.9622 12.7869 81.2946C12.5881 81.627 12.3054 81.8869 11.9389 82.0744C11.5724 82.2591 11.1335 82.3528 10.6222 82.3556L6.45454 82.3556L6.45454 80.5403L10.2983 80.5403C10.6847 80.5375 10.9901 80.4338 11.2145 80.2292C11.4389 80.0247 11.5511 79.7505 11.5511 79.4068C11.5511 79.188 11.5014 78.9835 11.402 78.7931C11.2997 78.6028 11.1491 78.4494 10.9503 78.3329C10.7514 78.2136 10.5057 78.1554 10.2131 78.1582ZM13.1278 71.9078C13.1278 72.5811 12.9915 73.1607 12.7187 73.6465C12.4432 74.1294 12.054 74.5016 11.5511 74.763C11.0455 75.0243 10.4474 75.155 9.7571 75.155C9.0838 75.155 8.49289 75.0243 7.98437 74.763C7.47585 74.5016 7.07954 74.1337 6.79545 73.6593C6.51136 73.182 6.36932 72.6223 6.36932 71.9803C6.36932 71.5485 6.43892 71.1465 6.57812 70.7743C6.71449 70.3993 6.92045 70.0726 7.19602 69.7942C7.47159 69.513 7.81818 69.2942 8.23579 69.138C8.65056 68.9817 9.13636 68.9036 9.69318 68.9036L10.1918 68.9036L10.1918 74.4306L9.06676 74.4306L9.06676 70.6124C8.80539 70.6124 8.57386 70.6692 8.37216 70.7828C8.17045 70.8965 8.01278 71.0542 7.89914 71.2559C7.78267 71.4547 7.72443 71.6863 7.72443 71.9505C7.72443 72.226 7.78835 72.4703 7.91619 72.6834C8.04119 72.8936 8.21022 73.0584 8.42329 73.1777C8.63352 73.2971 8.86789 73.3581 9.12642 73.361L10.196 73.361C10.5199 73.361 10.7997 73.3013 11.0355 73.182C11.2713 73.0598 11.4531 72.888 11.581 72.6664C11.7088 72.4448 11.7727 72.182 11.7727 71.878C11.7727 71.6763 11.7443 71.4917 11.6875 71.324C11.6307 71.1564 11.5455 71.013 11.4318 70.8936C11.3182 70.7743 11.179 70.6834 11.0142 70.6209L11.125 68.9419C11.5284 69.0272 11.8807 69.2019 12.1818 69.4661C12.4801 69.7274 12.7131 70.0655 12.8807 70.4803C13.0455 70.8922 13.1278 71.3681 13.1278 71.9078ZM8.32102 62.2729L8.42329 63.9348C8.28125 63.9632 8.15341 64.0243 8.03977 64.1181C7.92329 64.2118 7.83096 64.3354 7.76278 64.4888C7.69176 64.6394 7.65625 64.8198 7.65625 65.03C7.65625 65.3113 7.71591 65.5485 7.83522 65.7417C7.9517 65.9348 8.10795 66.0314 8.30397 66.0314C8.46022 66.0314 8.59233 65.9689 8.70028 65.8439C8.80823 65.7189 8.89488 65.5044 8.96022 65.2005L9.19886 64.0158C9.32954 63.3794 9.53977 62.905 9.82954 62.5925C10.1193 62.28 10.5 62.1238 10.9716 62.1238C11.4006 62.1238 11.777 62.2502 12.1008 62.503C12.4247 62.753 12.6776 63.0968 12.8594 63.5343C13.0383 63.9689 13.1278 64.4703 13.1278 65.0385C13.1278 65.905 12.9474 66.5953 12.5866 67.1096C12.223 67.6209 11.7287 67.9206 11.1037 68.0087L11.0099 66.2232C11.2741 66.1692 11.4758 66.0385 11.6151 65.8311C11.7514 65.6238 11.8196 65.3581 11.8196 65.0343C11.8196 64.7161 11.7585 64.4604 11.6364 64.2672C11.5114 64.0712 11.3508 63.9718 11.1548 63.9689C10.9901 63.9718 10.8551 64.0414 10.75 64.1777C10.642 64.3141 10.5597 64.5243 10.5028 64.8084L10.277 65.9419C10.1491 66.5811 9.92755 67.057 9.61221 67.3695C9.29687 67.6792 8.89488 67.834 8.40625 67.834C7.98579 67.834 7.62358 67.7203 7.3196 67.4931C7.01562 67.263 6.78125 66.9405 6.61647 66.5257C6.4517 66.1081 6.36931 65.6195 6.36931 65.0598C6.36931 64.2331 6.54403 63.5826 6.89346 63.1081C7.24289 62.6309 7.71875 62.3525 8.32102 62.2729ZM6.45454 57.4991L7.81818 57.4991L7.81818 61.4409L6.45454 61.4409L6.45454 57.4991ZM4.88636 60.546L4.88636 58.7306L10.9886 58.7306C11.1562 58.7306 11.2869 58.7051 11.3807 58.6539C11.4716 58.6028 11.5355 58.5318 11.5724 58.4409C11.6094 58.3471 11.6278 58.2392 11.6278 58.117C11.6278 58.0318 11.6207 57.9466 11.6065 57.8613C11.5895 57.7761 11.5767 57.7108 11.5682 57.6653L12.919 57.3798C12.9474 57.4707 12.9801 57.5985 13.017 57.7633C13.0568 57.9281 13.081 58.1284 13.0895 58.3642C13.1065 58.8017 13.0483 59.1852 12.9148 59.5147C12.7812 59.8414 12.5739 60.0957 12.2926 60.2775C12.0114 60.4593 11.6562 60.5488 11.2273 60.546L4.88636 60.546ZM8.32102 50.9526L8.42329 52.6145C8.28124 52.6429 8.1534 52.704 8.03977 52.7978C7.92329 52.8915 7.83096 53.0151 7.76278 53.1685C7.69176 53.3191 7.65625 53.4995 7.65625 53.7097C7.65625 53.9909 7.7159 54.2282 7.83522 54.4213C7.9517 54.6145 8.10795 54.7111 8.30397 54.7111C8.46022 54.7111 8.59232 54.6486 8.70028 54.5236C8.80823 54.3986 8.89488 54.1841 8.96022 53.8801L9.19886 52.6955C9.32954 52.0591 9.53977 51.5847 9.82954 51.2722C10.1193 50.9597 10.5 50.8034 10.9716 50.8034C11.4006 50.8034 11.777 50.9299 12.1008 51.1827C12.4247 51.4327 12.6776 51.7765 12.8594 52.214C13.0383 52.6486 13.1278 53.15 13.1278 53.7182C13.1278 54.5847 12.9474 55.275 12.5866 55.7892C12.223 56.3006 11.7287 56.6003 11.1037 56.6884L11.0099 54.9029C11.2741 54.8489 11.4758 54.7182 11.6151 54.5108C11.7514 54.3034 11.8196 54.0378 11.8196 53.714C11.8196 53.3958 11.7585 53.1401 11.6364 52.9469C11.5114 52.7509 11.3508 52.6515 11.1548 52.6486C10.9901 52.6515 10.8551 52.7211 10.75 52.8574C10.642 52.9938 10.5597 53.204 10.5028 53.4881L10.277 54.6216C10.1491 55.2608 9.92755 55.7367 9.61221 56.0492C9.29687 56.3588 8.89488 56.5137 8.40625 56.5137C7.98579 56.5137 7.62357 56.4 7.3196 56.1728C7.01562 55.9426 6.78125 55.6202 6.61647 55.2054C6.4517 54.7878 6.36931 54.2992 6.36931 53.7395C6.36931 52.9128 6.54403 52.2623 6.89346 51.7878C7.24289 51.3105 7.71874 51.0321 8.32102 50.9526Z" fill="black"/>
<line x1="26" y1="154.094" x2="496" y2="154.094" stroke="black" stroke-width="2"/>
<line x1="27" y1="-4.37114e-08" x2="27" y2="155" stroke="black" stroke-width="2"/>
<path d="M243.347 121.594H241.369L244.382 112.866H246.76L249.769 121.594H247.791L245.605 114.861H245.537L243.347 121.594ZM243.223 118.163H247.894V119.604H243.223V118.163ZM253.438 121.722C252.767 121.722 252.191 121.58 251.708 121.295C251.227 121.009 250.858 120.611 250.6 120.102C250.344 119.594 250.216 119.009 250.216 118.347C250.216 117.676 250.345 117.088 250.604 116.582C250.865 116.074 251.236 115.678 251.716 115.393C252.196 115.107 252.767 114.963 253.429 114.963C254 114.963 254.5 115.067 254.929 115.274C255.358 115.482 255.698 115.773 255.948 116.148C256.198 116.523 256.335 116.963 256.361 117.469H254.648C254.6 117.142 254.472 116.879 254.264 116.68C254.06 116.479 253.791 116.378 253.459 116.378C253.178 116.378 252.932 116.455 252.722 116.608C252.514 116.759 252.352 116.979 252.236 117.268C252.119 117.558 252.061 117.909 252.061 118.321C252.061 118.739 252.118 119.094 252.232 119.386C252.348 119.679 252.512 119.902 252.722 120.055C252.932 120.209 253.178 120.286 253.459 120.286C253.666 120.286 253.852 120.243 254.017 120.158C254.185 120.072 254.323 119.949 254.431 119.787C254.541 119.622 254.614 119.425 254.648 119.195H256.361C256.333 119.695 256.196 120.135 255.952 120.516C255.71 120.893 255.377 121.189 254.95 121.402C254.524 121.615 254.02 121.722 253.438 121.722ZM261.005 115.048V116.412H257.063V115.048H261.005ZM257.958 113.48H259.773V119.582C259.773 119.75 259.799 119.881 259.85 119.974C259.901 120.065 259.972 120.129 260.063 120.166C260.157 120.203 260.265 120.222 260.387 120.222C260.472 120.222 260.557 120.214 260.643 120.2C260.728 120.183 260.793 120.17 260.839 120.162L261.124 121.513C261.033 121.541 260.905 121.574 260.741 121.611C260.576 121.651 260.376 121.675 260.14 121.683C259.702 121.7 259.319 121.642 258.989 121.509C258.662 121.375 258.408 121.168 258.226 120.886C258.045 120.605 257.955 120.25 257.958 119.821V113.48ZM262.187 121.594V115.048H264.003V121.594H262.187ZM263.099 114.205C262.829 114.205 262.598 114.115 262.405 113.936C262.214 113.754 262.119 113.537 262.119 113.284C262.119 113.034 262.214 112.82 262.405 112.641C262.598 112.459 262.829 112.368 263.099 112.368C263.369 112.368 263.599 112.459 263.79 112.641C263.983 112.82 264.079 113.034 264.079 113.284C264.079 113.537 263.983 113.754 263.79 113.936C263.599 114.115 263.369 114.205 263.099 114.205ZM268.414 121.722C267.752 121.722 267.18 121.581 266.697 121.3C266.217 121.016 265.846 120.621 265.585 120.115C265.323 119.607 265.193 119.017 265.193 118.347C265.193 117.67 265.323 117.08 265.585 116.574C265.846 116.065 266.217 115.67 266.697 115.389C267.18 115.105 267.752 114.963 268.414 114.963C269.076 114.963 269.647 115.105 270.127 115.389C270.61 115.67 270.982 116.065 271.244 116.574C271.505 117.08 271.636 117.67 271.636 118.347C271.636 119.017 271.505 119.607 271.244 120.115C270.982 120.621 270.61 121.016 270.127 121.3C269.647 121.581 269.076 121.722 268.414 121.722ZM268.423 120.315C268.724 120.315 268.975 120.23 269.177 120.06C269.379 119.886 269.531 119.651 269.633 119.352C269.738 119.054 269.791 118.714 269.791 118.334C269.791 117.953 269.738 117.614 269.633 117.315C269.531 117.017 269.379 116.781 269.177 116.608C268.975 116.435 268.724 116.348 268.423 116.348C268.119 116.348 267.863 116.435 267.656 116.608C267.451 116.781 267.296 117.017 267.191 117.315C267.089 117.614 267.038 117.953 267.038 118.334C267.038 118.714 267.089 119.054 267.191 119.352C267.296 119.651 267.451 119.886 267.656 120.06C267.863 120.23 268.119 120.315 268.423 120.315ZM274.632 117.81V121.594H272.816V115.048H274.546V116.203H274.623C274.768 115.822 275.011 115.521 275.352 115.3C275.693 115.075 276.106 114.963 276.592 114.963C277.046 114.963 277.443 115.062 277.781 115.261C278.119 115.46 278.382 115.744 278.569 116.114C278.757 116.48 278.85 116.918 278.85 117.426V121.594H277.035V117.75C277.038 117.349 276.936 117.037 276.728 116.812C276.521 116.585 276.235 116.472 275.872 116.472C275.627 116.472 275.411 116.524 275.224 116.629C275.039 116.734 274.894 116.888 274.789 117.089C274.687 117.288 274.634 117.528 274.632 117.81ZM285.47 121.7C284.973 121.7 284.523 121.572 284.119 121.317C283.719 121.058 283.401 120.679 283.165 120.179C282.932 119.676 282.816 119.06 282.816 118.33C282.816 117.58 282.936 116.956 283.178 116.459C283.419 115.959 283.74 115.585 284.141 115.338C284.544 115.088 284.986 114.963 285.466 114.963C285.833 114.963 286.138 115.026 286.382 115.151C286.629 115.273 286.828 115.426 286.979 115.611C287.132 115.793 287.249 115.972 287.328 116.148H287.384V112.866H289.195V121.594H287.405V120.545H287.328C287.243 120.727 287.122 120.908 286.966 121.087C286.813 121.263 286.612 121.409 286.365 121.526C286.121 121.642 285.823 121.7 285.47 121.7ZM286.046 120.256C286.338 120.256 286.585 120.176 286.787 120.017C286.992 119.855 287.148 119.629 287.256 119.339C287.367 119.05 287.422 118.71 287.422 118.321C287.422 117.932 287.368 117.594 287.26 117.307C287.152 117.02 286.996 116.798 286.791 116.642C286.587 116.486 286.338 116.408 286.046 116.408C285.747 116.408 285.496 116.489 285.291 116.651C285.087 116.812 284.932 117.037 284.827 117.324C284.722 117.611 284.669 117.943 284.669 118.321C284.669 118.702 284.722 119.038 284.827 119.331C284.935 119.621 285.09 119.848 285.291 120.013C285.496 120.175 285.747 120.256 286.046 120.256ZM294.885 118.807V115.048H296.7V121.594H294.957V120.405H294.889C294.741 120.788 294.496 121.097 294.152 121.33C293.811 121.562 293.395 121.679 292.903 121.679C292.466 121.679 292.081 121.58 291.748 121.381C291.416 121.182 291.156 120.899 290.969 120.533C290.784 120.166 290.69 119.727 290.687 119.216V115.048H292.503V118.892C292.506 119.278 292.609 119.584 292.814 119.808C293.018 120.033 293.292 120.145 293.636 120.145C293.855 120.145 294.059 120.095 294.25 119.996C294.44 119.893 294.594 119.743 294.71 119.544C294.829 119.345 294.888 119.099 294.885 118.807ZM298.152 121.594V115.048H299.912V116.19H299.98C300.1 115.784 300.3 115.477 300.581 115.27C300.862 115.06 301.186 114.955 301.553 114.955C301.644 114.955 301.742 114.96 301.847 114.972C301.952 114.983 302.044 114.999 302.124 115.018V116.629C302.039 116.604 301.921 116.581 301.77 116.561C301.619 116.541 301.482 116.531 301.357 116.531C301.09 116.531 300.851 116.589 300.641 116.706C300.433 116.82 300.269 116.979 300.146 117.183C300.027 117.388 299.968 117.624 299.968 117.891V121.594H298.152ZM304.741 121.717C304.324 121.717 303.952 121.645 303.625 121.5C303.298 121.352 303.04 121.135 302.849 120.848C302.662 120.558 302.568 120.197 302.568 119.766C302.568 119.402 302.635 119.097 302.768 118.849C302.902 118.602 303.084 118.403 303.314 118.253C303.544 118.102 303.805 117.989 304.098 117.912C304.393 117.835 304.703 117.781 305.027 117.75C305.407 117.71 305.714 117.673 305.947 117.639C306.18 117.602 306.349 117.548 306.454 117.477C306.559 117.406 306.612 117.301 306.612 117.162V117.136C306.612 116.866 306.527 116.658 306.356 116.51C306.189 116.362 305.95 116.288 305.64 116.288C305.314 116.288 305.054 116.361 304.861 116.506C304.667 116.648 304.54 116.827 304.477 117.043L302.798 116.906C302.883 116.509 303.051 116.165 303.301 115.875C303.551 115.582 303.873 115.358 304.268 115.202C304.666 115.043 305.126 114.963 305.649 114.963C306.013 114.963 306.361 115.006 306.693 115.091C307.028 115.176 307.325 115.308 307.584 115.487C307.845 115.666 308.051 115.896 308.202 116.178C308.352 116.456 308.427 116.79 308.427 117.179V121.594H306.706V120.686H306.655C306.55 120.891 306.409 121.071 306.233 121.227C306.057 121.381 305.845 121.501 305.598 121.589C305.351 121.675 305.065 121.717 304.741 121.717ZM305.261 120.464C305.528 120.464 305.764 120.412 305.969 120.307C306.173 120.199 306.334 120.054 306.45 119.872C306.567 119.69 306.625 119.484 306.625 119.254V118.56C306.568 118.597 306.49 118.631 306.39 118.662C306.294 118.69 306.184 118.717 306.062 118.743C305.94 118.766 305.818 118.787 305.696 118.807C305.574 118.824 305.463 118.839 305.363 118.854C305.15 118.885 304.964 118.935 304.805 119.003C304.646 119.071 304.523 119.163 304.434 119.28C304.346 119.393 304.302 119.536 304.302 119.706C304.302 119.953 304.392 120.142 304.571 120.273C304.753 120.401 304.983 120.464 305.261 120.464ZM313.317 115.048V116.412H309.376V115.048H313.317ZM310.27 113.48H312.086V119.582C312.086 119.75 312.111 119.881 312.162 119.974C312.214 120.065 312.285 120.129 312.376 120.166C312.469 120.203 312.577 120.222 312.699 120.222C312.785 120.222 312.87 120.214 312.955 120.2C313.04 120.183 313.106 120.17 313.151 120.162L313.437 121.513C313.346 121.541 313.218 121.574 313.053 121.611C312.888 121.651 312.688 121.675 312.452 121.683C312.015 121.7 311.631 121.642 311.302 121.509C310.975 121.375 310.721 121.168 310.539 120.886C310.357 120.605 310.268 120.25 310.27 119.821V113.48ZM314.5 121.594V115.048H316.315V121.594H314.5ZM315.412 114.205C315.142 114.205 314.91 114.115 314.717 113.936C314.527 113.754 314.432 113.537 314.432 113.284C314.432 113.034 314.527 112.82 314.717 112.641C314.91 112.459 315.142 112.368 315.412 112.368C315.682 112.368 315.912 112.459 316.102 112.641C316.295 112.82 316.392 113.034 316.392 113.284C316.392 113.537 316.295 113.754 316.102 113.936C315.912 114.115 315.682 114.205 315.412 114.205ZM320.727 121.722C320.065 121.722 319.492 121.581 319.009 121.3C318.529 121.016 318.159 120.621 317.897 120.115C317.636 119.607 317.505 119.017 317.505 118.347C317.505 117.67 317.636 117.08 317.897 116.574C318.159 116.065 318.529 115.67 319.009 115.389C319.492 115.105 320.065 114.963 320.727 114.963C321.389 114.963 321.96 115.105 322.44 115.389C322.923 115.67 323.295 116.065 323.556 116.574C323.818 117.08 323.948 117.67 323.948 118.347C323.948 119.017 323.818 119.607 323.556 120.115C323.295 120.621 322.923 121.016 322.44 121.3C321.96 121.581 321.389 121.722 320.727 121.722ZM320.735 120.315C321.036 120.315 321.288 120.23 321.49 120.06C321.691 119.886 321.843 119.651 321.945 119.352C322.051 119.054 322.103 118.714 322.103 118.334C322.103 117.953 322.051 117.614 321.945 117.315C321.843 117.017 321.691 116.781 321.49 116.608C321.288 116.435 321.036 116.348 320.735 116.348C320.431 116.348 320.176 116.435 319.968 116.608C319.764 116.781 319.609 117.017 319.504 117.315C319.401 117.614 319.35 117.953 319.35 118.334C319.35 118.714 319.401 119.054 319.504 119.352C319.609 119.651 319.764 119.886 319.968 120.06C320.176 120.23 320.431 120.315 320.735 120.315ZM326.944 117.81V121.594H325.129V115.048H326.859V116.203H326.936C327.08 115.822 327.323 115.521 327.664 115.3C328.005 115.075 328.419 114.963 328.904 114.963C329.359 114.963 329.755 115.062 330.093 115.261C330.431 115.46 330.694 115.744 330.882 116.114C331.069 116.48 331.163 116.918 331.163 117.426V121.594H329.347V117.75C329.35 117.349 329.248 117.037 329.041 116.812C328.833 116.585 328.548 116.472 328.184 116.472C327.94 116.472 327.724 116.524 327.536 116.629C327.352 116.734 327.207 116.888 327.102 117.089C326.999 117.288 326.947 117.528 326.944 117.81Z" fill="black"/>
<path d="M124.206 31.5124L122.056 37.7265" stroke="#3E74FF" stroke-width="2"/>
<path d="M123.938 32.2812L131.375 10.9062L203.547 48.5L293.5 20.5L347 90L420.5 41.5L449.664 51.8555" stroke="#FC3D2E" stroke-width="2"/>
<path d="M450 53.0273V50.9141L449.25 52.7695L450 53.0273Z" fill="#FC3D2E"/>
</g>
<defs>
<linearGradient id="paint0_linear_103_2" x1="326.859" y1="25.0937" x2="326.859" y2="159.094" gradientUnits="userSpaceOnUse">
<stop stop-color="#A8CBFF"/>
<stop offset="0.686567" stop-color="#E0ECFF"/>
<stop offset="1" stop-color="white"/>
</linearGradient>
<linearGradient id="paint1_linear_103_2" x1="306.227" y1="-119" x2="306.227" y2="185" gradientUnits="userSpaceOnUse">
<stop stop-color="#FC3D2E"/>
<stop offset="0.858712" stop-color="#FFEFEE"/>
<stop offset="1" stop-color="white"/>
</linearGradient>
<clipPath id="clip0_103_2">
<rect width="496" height="180" fill="white"/>
</clipPath>
</defs>
</svg>
