<svg width="496" height="180" viewBox="0 0 496 180" fill="none" xmlns="http://www.w3.org/2000/svg">
<g clip-path="url(#clip0_103_20)">
<line x1="27.125" y1="32.9375" x2="496.125" y2="32.9375" stroke="#57CF7D" stroke-width="2"/>
<path d="M98.8465 105L62.9232 57.5L27 78V154H495V67.5L419.661 41.5L346.318 90L292.932 20.5L203.124 48.5L131.277 11L98.8465 105Z" fill="url(#paint0_linear_103_20)" stroke="#3E74FF" stroke-width="2"/>
<path d="M98.8465 105L62.9232 57.5L27 78V154H495V67.5L419.661 41.5L346.318 90L292.932 20.5L203.124 48.5L131.277 11L98.8465 105Z" fill="url(#paint1_linear_103_20)" stroke="#3E74FF" stroke-width="2"/>
<path d="M26 172L242 172" stroke="black" stroke-width="2"/>
<path d="M495.707 172.707C496.098 172.317 496.098 171.683 495.707 171.293L489.343 164.929C488.953 164.538 488.319 164.538 487.929 164.929C487.538 165.319 487.538 165.953 487.929 166.343L493.586 172L487.929 177.657C487.538 178.047 487.538 178.681 487.929 179.071C488.319 179.462 488.953 179.462 489.343 179.071L495.707 172.707ZM280 173L495 173L495 171L280 171L280 173Z" fill="black"/>
<path d="M246.725 167.169V165.648H253.893V167.169H251.221V174.375H249.397V167.169H246.725ZM255.039 174.375V167.83H256.854V174.375H255.039ZM255.951 166.986C255.681 166.986 255.449 166.896 255.256 166.717C255.066 166.536 254.971 166.318 254.971 166.065C254.971 165.815 255.066 165.601 255.256 165.422C255.449 165.24 255.681 165.149 255.951 165.149C256.221 165.149 256.451 165.24 256.641 165.422C256.834 165.601 256.931 165.815 256.931 166.065C256.931 166.318 256.834 166.536 256.641 166.717C256.451 166.896 256.221 166.986 255.951 166.986ZM258.308 174.375V167.83H260.039V168.984H260.115C260.252 168.601 260.479 168.298 260.797 168.077C261.115 167.855 261.496 167.744 261.939 167.744C262.388 167.744 262.77 167.857 263.085 168.081C263.401 168.303 263.611 168.604 263.716 168.984H263.784C263.918 168.609 264.159 168.31 264.509 168.085C264.861 167.858 265.277 167.744 265.757 167.744C266.368 167.744 266.864 167.939 267.244 168.328C267.628 168.714 267.82 169.263 267.82 169.973V174.375H266.009V170.331C266.009 169.967 265.912 169.695 265.719 169.513C265.526 169.331 265.284 169.24 264.994 169.24C264.665 169.24 264.408 169.345 264.223 169.555C264.039 169.763 263.946 170.037 263.946 170.378V174.375H262.186V170.293C262.186 169.972 262.094 169.716 261.909 169.526C261.727 169.335 261.487 169.24 261.189 169.24C260.987 169.24 260.806 169.291 260.644 169.393C260.485 169.493 260.358 169.634 260.264 169.815C260.171 169.994 260.124 170.205 260.124 170.446V174.375H258.308ZM272.237 174.503C271.563 174.503 270.984 174.366 270.498 174.094C270.015 173.818 269.643 173.429 269.382 172.926C269.12 172.42 268.99 171.822 268.99 171.132C268.99 170.459 269.12 169.868 269.382 169.359C269.643 168.851 270.011 168.455 270.485 168.17C270.963 167.886 271.522 167.744 272.164 167.744C272.596 167.744 272.998 167.814 273.37 167.953C273.745 168.089 274.072 168.295 274.35 168.571C274.632 168.847 274.85 169.193 275.007 169.611C275.163 170.026 275.241 170.511 275.241 171.068V171.567H269.714V170.442H273.532C273.532 170.18 273.475 169.949 273.362 169.747C273.248 169.545 273.09 169.388 272.889 169.274C272.69 169.158 272.458 169.099 272.194 169.099C271.919 169.099 271.674 169.163 271.461 169.291C271.251 169.416 271.086 169.585 270.967 169.798C270.847 170.009 270.786 170.243 270.784 170.501V171.571C270.784 171.895 270.843 172.175 270.963 172.411C271.085 172.646 271.257 172.828 271.478 172.956C271.7 173.084 271.963 173.148 272.267 173.148C272.468 173.148 272.653 173.119 272.82 173.062C272.988 173.006 273.132 172.92 273.251 172.807C273.37 172.693 273.461 172.554 273.524 172.389L275.203 172.5C275.117 172.903 274.943 173.256 274.678 173.557C274.417 173.855 274.079 174.088 273.664 174.256C273.252 174.42 272.776 174.503 272.237 174.503Z" fill="black"/>
<path d="M9 155L9 109.625" stroke="black" stroke-width="2"/>
<path d="M9.70711 0.292892C9.31659 -0.0976295 8.68342 -0.0976296 8.2929 0.292892L1.92894 6.65685C1.53841 7.04738 1.53841 7.68054 1.92894 8.07107C2.31946 8.46159 2.95262 8.46159 3.34315 8.07107L9 2.41422L14.6569 8.07107C15.0474 8.46159 15.6805 8.46159 16.0711 8.07107C16.4616 7.68054 16.4616 7.04738 16.0711 6.65685L9.70711 0.292892ZM10 46L10 1L8 1L8 46L10 46Z" fill="black"/>
<path d="M13 104.857L4.27273 104.857L4.27273 101.414C4.27273 100.754 4.39062 100.192 4.62642 99.726C4.85937 99.2573 5.19034 98.9007 5.61932 98.6564C6.04545 98.4093 6.54687 98.2857 7.12358 98.2857C7.70312 98.2857 8.2017 98.4107 8.61932 98.6607C9.03409 98.9107 9.35227 99.2729 9.57386 99.7473C9.79545 100.219 9.90625 100.79 9.90625 101.46L9.90625 103.766L8.4233 103.766L8.42329 101.759C8.42329 101.406 8.375 101.114 8.27841 100.881C8.18182 100.648 8.03693 100.475 7.84375 100.361C7.65057 100.244 7.41051 100.186 7.12358 100.186C6.83381 100.186 6.58949 100.244 6.39062 100.361C6.19176 100.475 6.04119 100.649 5.93892 100.885C5.83381 101.118 5.78125 101.412 5.78125 101.767L5.78125 103.012L13 103.012L13 104.857ZM9.02841 100.144L13 97.9746L13 100.012L9.02841 102.134L9.02841 100.144ZM13.1278 94.1383C13.1278 94.8116 12.9915 95.3912 12.7187 95.877C12.4432 96.3599 12.054 96.7321 11.5511 96.9934C11.0455 97.2548 10.4474 97.3855 9.7571 97.3855C9.08381 97.3855 8.4929 97.2548 7.98437 96.9934C7.47585 96.7321 7.07954 96.3642 6.79545 95.8897C6.51136 95.4125 6.36932 94.8528 6.36932 94.2108C6.36932 93.7789 6.43892 93.377 6.57812 93.0048C6.71449 92.6298 6.92045 92.3031 7.19602 92.0247C7.47159 91.7434 7.81818 91.5247 8.23579 91.3684C8.65057 91.2122 9.13636 91.1341 9.69318 91.1341L10.1918 91.1341L10.1918 96.661L9.06676 96.661L9.06676 92.8429C8.8054 92.8429 8.57386 92.8997 8.37216 93.0133C8.17045 93.127 8.01278 93.2846 7.89915 93.4863C7.78267 93.6852 7.72443 93.9167 7.72443 94.1809C7.72443 94.4565 7.78835 94.7008 7.91619 94.9139C8.04119 95.1241 8.21023 95.2889 8.42329 95.4082C8.63352 95.5275 8.8679 95.5886 9.12642 95.5914L10.196 95.5914C10.5199 95.5914 10.7997 95.5318 11.0355 95.4125C11.2713 95.2903 11.4531 95.1184 11.581 94.8968C11.7088 94.6752 11.7727 94.4125 11.7727 94.1085C11.7727 93.9068 11.7443 93.7221 11.6875 93.5545C11.6307 93.3869 11.5455 93.2434 11.4318 93.1241C11.3182 93.0048 11.179 92.9139 11.0142 92.8514L11.125 91.1724C11.5284 91.2576 11.8807 91.4324 12.1818 91.6966C12.4801 91.9579 12.7131 92.296 12.8807 92.7108C13.0455 93.1227 13.1278 93.5985 13.1278 94.1383ZM15.4545 85.6241L11.9517 85.6241L11.9517 85.6795C12.1335 85.7647 12.3139 85.8855 12.4929 86.0417C12.669 86.1951 12.8153 86.3954 12.9318 86.6426C13.0483 86.8869 13.1065 87.1852 13.1065 87.5375C13.1065 88.0346 12.9787 88.4849 12.723 88.8883C12.4645 89.2889 12.0852 89.6071 11.5852 89.8429C11.0824 90.0758 10.4659 90.1923 9.73579 90.1923C8.98579 90.1923 8.36221 90.0716 7.86506 89.8301C7.36506 89.5886 6.99148 89.2676 6.74432 88.867C6.49432 88.4636 6.36932 88.0218 6.36932 87.5417C6.36932 87.1752 6.43182 86.8699 6.55682 86.6255C6.67898 86.3784 6.83238 86.1795 7.01704 86.0289C7.19886 85.8755 7.37784 85.7591 7.55398 85.6795L7.55398 85.6028L6.45454 85.6028L6.45454 83.813L15.4545 83.813L15.4545 85.6241ZM11.6619 86.9622C11.6619 86.6696 11.5824 86.4224 11.4233 86.2207C11.2614 86.0162 11.0355 85.8599 10.7457 85.752C10.456 85.6412 10.1165 85.5858 9.72727 85.5858C9.33807 85.5858 9 85.6397 8.71307 85.7477C8.42613 85.8556 8.20454 86.0119 8.04829 86.2164C7.89204 86.421 7.81392 86.6696 7.81392 86.9622C7.81392 87.2605 7.89488 87.5119 8.05682 87.7164C8.21875 87.921 8.44318 88.0758 8.73011 88.1809C9.01704 88.286 9.34943 88.3386 9.72727 88.3386C10.108 88.3386 10.4446 88.286 10.7372 88.1809C11.027 88.073 11.2543 87.9181 11.419 87.7164C11.581 87.5119 11.6619 87.2605 11.6619 86.9622ZM10.2131 78.1582L6.45454 78.1582L6.45454 76.3429L13 76.3429L13 78.0858L11.8111 78.0858L11.8111 78.1539C12.1946 78.3017 12.5028 78.5474 12.7358 78.8912C12.9687 79.2321 13.0852 79.6483 13.0852 80.1397C13.0852 80.5772 12.9858 80.9622 12.7869 81.2946C12.5881 81.627 12.3054 81.8869 11.9389 82.0744C11.5724 82.2591 11.1335 82.3528 10.6222 82.3556L6.45454 82.3556L6.45454 80.5403L10.2983 80.5403C10.6847 80.5375 10.9901 80.4338 11.2145 80.2292C11.4389 80.0247 11.5511 79.7505 11.5511 79.4068C11.5511 79.188 11.5014 78.9835 11.402 78.7931C11.2997 78.6028 11.1491 78.4494 10.9503 78.3329C10.7514 78.2136 10.5057 78.1554 10.2131 78.1582ZM13.1278 71.9078C13.1278 72.5811 12.9915 73.1607 12.7187 73.6465C12.4432 74.1294 12.054 74.5016 11.5511 74.763C11.0455 75.0243 10.4474 75.155 9.7571 75.155C9.0838 75.155 8.49289 75.0243 7.98437 74.763C7.47585 74.5016 7.07954 74.1337 6.79545 73.6593C6.51136 73.182 6.36932 72.6223 6.36932 71.9803C6.36932 71.5485 6.43892 71.1465 6.57812 70.7743C6.71449 70.3993 6.92045 70.0726 7.19602 69.7942C7.47159 69.513 7.81818 69.2942 8.23579 69.138C8.65056 68.9817 9.13636 68.9036 9.69318 68.9036L10.1918 68.9036L10.1918 74.4306L9.06676 74.4306L9.06676 70.6124C8.80539 70.6124 8.57386 70.6692 8.37216 70.7828C8.17045 70.8965 8.01278 71.0542 7.89914 71.2559C7.78267 71.4547 7.72443 71.6863 7.72443 71.9505C7.72443 72.226 7.78835 72.4703 7.91619 72.6834C8.04119 72.8936 8.21022 73.0584 8.42329 73.1777C8.63352 73.2971 8.86789 73.3581 9.12642 73.361L10.196 73.361C10.5199 73.361 10.7997 73.3013 11.0355 73.182C11.2713 73.0598 11.4531 72.888 11.581 72.6664C11.7088 72.4448 11.7727 72.182 11.7727 71.878C11.7727 71.6763 11.7443 71.4917 11.6875 71.324C11.6307 71.1564 11.5455 71.013 11.4318 70.8936C11.3182 70.7743 11.179 70.6834 11.0142 70.6209L11.125 68.9419C11.5284 69.0272 11.8807 69.2019 12.1818 69.4661C12.4801 69.7274 12.7131 70.0655 12.8807 70.4803C13.0455 70.8922 13.1278 71.3681 13.1278 71.9078ZM8.32102 62.2729L8.42329 63.9348C8.28125 63.9632 8.15341 64.0243 8.03977 64.1181C7.92329 64.2118 7.83096 64.3354 7.76278 64.4888C7.69176 64.6394 7.65625 64.8198 7.65625 65.03C7.65625 65.3113 7.71591 65.5485 7.83522 65.7417C7.9517 65.9348 8.10795 66.0314 8.30397 66.0314C8.46022 66.0314 8.59233 65.9689 8.70028 65.8439C8.80823 65.7189 8.89488 65.5044 8.96022 65.2005L9.19886 64.0158C9.32954 63.3794 9.53977 62.905 9.82954 62.5925C10.1193 62.28 10.5 62.1238 10.9716 62.1238C11.4006 62.1238 11.777 62.2502 12.1008 62.503C12.4247 62.753 12.6776 63.0968 12.8594 63.5343C13.0383 63.9689 13.1278 64.4703 13.1278 65.0385C13.1278 65.905 12.9474 66.5953 12.5866 67.1096C12.223 67.6209 11.7287 67.9206 11.1037 68.0087L11.0099 66.2232C11.2741 66.1692 11.4758 66.0385 11.6151 65.8311C11.7514 65.6238 11.8196 65.3581 11.8196 65.0343C11.8196 64.7161 11.7585 64.4604 11.6364 64.2672C11.5114 64.0712 11.3508 63.9718 11.1548 63.9689C10.9901 63.9718 10.8551 64.0414 10.75 64.1777C10.642 64.3141 10.5597 64.5243 10.5028 64.8084L10.277 65.9419C10.1491 66.5811 9.92755 67.057 9.61221 67.3695C9.29687 67.6792 8.89488 67.834 8.40625 67.834C7.98579 67.834 7.62358 67.7203 7.3196 67.4931C7.01562 67.263 6.78125 66.9405 6.61647 66.5257C6.4517 66.1081 6.36931 65.6195 6.36931 65.0598C6.36931 64.2331 6.54403 63.5826 6.89346 63.1081C7.24289 62.6309 7.71875 62.3525 8.32102 62.2729ZM6.45454 57.4991L7.81818 57.4991L7.81818 61.4409L6.45454 61.4409L6.45454 57.4991ZM4.88636 60.546L4.88636 58.7306L10.9886 58.7306C11.1562 58.7306 11.2869 58.7051 11.3807 58.6539C11.4716 58.6028 11.5355 58.5318 11.5724 58.4409C11.6094 58.3471 11.6278 58.2392 11.6278 58.117C11.6278 58.0318 11.6207 57.9466 11.6065 57.8613C11.5895 57.7761 11.5767 57.7108 11.5682 57.6653L12.919 57.3798C12.9474 57.4707 12.9801 57.5985 13.017 57.7633C13.0568 57.9281 13.081 58.1284 13.0895 58.3642C13.1065 58.8017 13.0483 59.1852 12.9148 59.5147C12.7812 59.8414 12.5739 60.0957 12.2926 60.2775C12.0114 60.4593 11.6562 60.5488 11.2273 60.546L4.88636 60.546ZM8.32102 50.9526L8.42329 52.6145C8.28124 52.6429 8.1534 52.704 8.03977 52.7978C7.92329 52.8915 7.83096 53.0151 7.76278 53.1685C7.69176 53.3191 7.65625 53.4995 7.65625 53.7097C7.65625 53.9909 7.7159 54.2282 7.83522 54.4213C7.9517 54.6145 8.10795 54.7111 8.30397 54.7111C8.46022 54.7111 8.59232 54.6486 8.70028 54.5236C8.80823 54.3986 8.89488 54.1841 8.96022 53.8801L9.19886 52.6955C9.32954 52.0591 9.53977 51.5847 9.82954 51.2722C10.1193 50.9597 10.5 50.8034 10.9716 50.8034C11.4006 50.8034 11.777 50.9299 12.1008 51.1827C12.4247 51.4327 12.6776 51.7765 12.8594 52.214C13.0383 52.6486 13.1278 53.15 13.1278 53.7182C13.1278 54.5847 12.9474 55.275 12.5866 55.7892C12.223 56.3006 11.7287 56.6003 11.1037 56.6884L11.0099 54.9029C11.2741 54.8489 11.4758 54.7182 11.6151 54.5108C11.7514 54.3034 11.8196 54.0378 11.8196 53.714C11.8196 53.3958 11.7585 53.1401 11.6364 52.9469C11.5114 52.7509 11.3508 52.6515 11.1548 52.6486C10.9901 52.6515 10.8551 52.7211 10.75 52.8574C10.642 52.9938 10.5597 53.204 10.5028 53.4881L10.277 54.6216C10.1491 55.2608 9.92755 55.7367 9.61221 56.0492C9.29687 56.3588 8.89488 56.5137 8.40625 56.5137C7.98579 56.5137 7.62357 56.4 7.3196 56.1728C7.01562 55.9426 6.78125 55.6202 6.61647 55.2054C6.4517 54.7878 6.36931 54.2992 6.36931 53.7395C6.36931 52.9128 6.54403 52.2623 6.89346 51.7878C7.24289 51.3105 7.71874 51.0321 8.32102 50.9526Z" fill="black"/>
<line x1="27" y1="154" x2="497" y2="154" stroke="black" stroke-width="2"/>
<line x1="27" y1="-4.37114e-08" x2="27" y2="155" stroke="black" stroke-width="2"/>
<path d="M173.102 32.8281L131.27 11L123.25 34.2656" stroke="#FC3D2E" stroke-width="2"/>
<path d="M304.4 33.9435L293.2 19.6172L246.523 33.9258L304.4 33.9435Z" fill="url(#paint2_linear_103_20)"/>
<path d="M246.766 34.8906L293.25 20.375L302.836 33.3906" stroke="#FC3D2E" stroke-width="2"/>
<path d="M131.836 12.4219L124.414 33.9492L172.652 33.7148L131.836 12.4219Z" fill="url(#paint3_linear_103_20)"/>
<path d="M124.418 33.9531L122.312 33.9453L124.188 34.6133L124.418 33.9531Z" fill="#3E74FF"/>
<path d="M177.41 33.9414L173.559 31.9414L172.641 33.7109L177.41 33.9414Z" fill="#FC3D2E"/>
<path d="M304.523 33.9414L303.637 32.7891L302.016 33.9648L304.523 33.9414Z" fill="#FC3D2E"/>
<path d="M253.211 33.9297L246.461 33.9414L247.02 35.8633L253.211 33.9297Z" fill="#3E74FF"/>
</g>
<defs>
<linearGradient id="paint0_linear_103_20" x1="326.859" y1="25" x2="326.859" y2="154" gradientUnits="userSpaceOnUse">
<stop stop-color="#A8CBFF"/>
<stop offset="0.810613" stop-color="#E0ECFF"/>
</linearGradient>
<linearGradient id="paint1_linear_103_20" x1="326.859" y1="25" x2="326.859" y2="159" gradientUnits="userSpaceOnUse">
<stop stop-color="#A8CBFF"/>
<stop offset="0.686567" stop-color="#E0ECFF"/>
<stop offset="1" stop-color="white"/>
</linearGradient>
<linearGradient id="paint2_linear_103_20" x1="275.462" y1="-112" x2="275.462" y2="186" gradientUnits="userSpaceOnUse">
<stop stop-color="#FC3D2E"/>
<stop offset="0.825397" stop-color="#FFEFEE"/>
<stop offset="0.998117" stop-color="white"/>
</linearGradient>
<linearGradient id="paint3_linear_103_20" x1="148.533" y1="-111" x2="148.533" y2="197" gradientUnits="userSpaceOnUse">
<stop stop-color="#FC3D2E"/>
<stop offset="0.818182" stop-color="#FFEFEE"/>
<stop offset="0.955017" stop-color="white"/>
</linearGradient>
<clipPath id="clip0_103_20">
<rect width="496" height="180" fill="white"/>
</clipPath>
</defs>
</svg>
